ply
format ascii 1.0
element vertex 188
property float x
property float y
property float z
end_header 
0.054597 -0.093201 -0.089848
-0.175428 0.083320 0.003121
-0.034579 0.001589 -0.035917
-0.297183 0.009567 -0.035752
-0.037392 0.018359 0.179889
-0.153611 0.160754 -0.278789
-0.270677 -0.108370 0.222219
-0.432389 0.050593 0.050556
0.042480 -0.015710 -0.072567
0.158357 -0.055378 -0.376195
-0.376198 -0.376209 -0.089180
-0.089110 -0.261332 -0.011050
0.018131 -0.126619 -0.233986
0.179556 -0.045115 -0.114148
0.163968 0.033413 0.012624
-0.028589 -0.099711 -0.204285
-0.200606 -0.029981 0.045447
-0.124560 -0.182851 -0.183686
-0.162853 -0.129554 -0.127139
-0.020145 0.040401 0.111233
-0.042983 -0.274890 -0.236250
-0.234498 -0.250413 0.128268
0.065795 -0.133820 0.130853
-0.430313 0.230325 0.187964
0.184021 -0.373235 0.007254
0.106412 -0.177803 0.065732
-0.510727 -0.029545 -0.006365
0.090712 -0.258142 -0.261717
0.030362 -0.263502 -0.109587
-0.513065 -0.366498 0.040494
-0.092550 0.047921 -0.444835
-0.007690 -0.098915 -0.078638
-0.046254 -0.312313 0.231909
-0.315606 0.226002 0.036887
-0.532143 0.048447 -0.334165
-0.001600 0.026484 0.024977
-0.533970 0.065700 0.008493
0.164083 0.009578 -0.084786
-0.234578 -0.100878 -0.134332
-0.189304 -0.174204 0.216797
-0.043660 0.020233 -0.268923
-0.318068 -0.293273 -0.119223
-0.475221 -0.257946 -0.254509
-0.235494 0.041423 -0.361968
-0.247615 -0.196179 -0.146191
0.186845 -0.296793 0.017594
0.006226 -0.060997 -0.261238
-0.096874 -0.085527 -0.078124
-0.081082 -0.019134 0.020908
0.022431 0.023889 0.027766
0.030745 0.033824 0.040161
0.047126 -0.103445 -0.065814
-0.090277 -0.047572 -0.082378
-0.081120 -0.065588 -0.013378
0.011784 0.025856 0.029398
0.034489 0.035895 0.050055
-0.070573 -0.093741 -0.119010
-0.118549 -0.117165 -0.080079
-0.078892 -0.077991 -0.058421
-0.054059 -0.060599 -0.045056
-0.029217 -0.045784 -0.027776
-0.001436 -0.003234 0.020931
0.044615 0.067770 -0.112673
-0.112538 -0.106897 -0.087511
-0.112356 -0.110318 -0.120991
-0.115488 -0.106359 -0.106245
-0.080576 -0.063023 -0.053071
-0.062900 -0.075086 -0.072618
-0.060366 -0.056275 -0.032661
-0.031390 -0.042102 -0.022918
-0.039562 -0.009703 -0.006784
-0.006627 -0.026171 -0.008626
-0.001459 -0.004857 0.001010
-0.000158 0.006683 0.007848
0.015722 0.018153 0.019183
0.020174 0.019697 0.021581
0.021190 0.036180 0.036308
0.041986 0.038792 0.044251
0.042299 0.067707 0.067812
-0.099645 -0.116978 -0.045906
-0.042682 -0.012293 -0.024654
-0.037361 -0.017726 -0.018051
-0.007004 -0.005523 0.001694
-0.006598 0.004483 0.005054
0.014560 0.036059 0.052716
0.056997 0.054666 0.066116
-0.115391 -0.114176 -0.026115
-0.012965 -0.010457 0.071726
-0.125305 -0.084843 -0.042717
-0.052320 -0.042724 -0.042723
-0.041202 -0.084254 -0.056870
-0.042719 -0.042961 -0.038665
-0.005582 0.023983 0.029307
0.020394 -0.065018 -0.125931
0.495646 0.579224 0.577873
0.613497 0.480418 0.535164
0.556698 0.536138 0.563538
0.670272 0.532090 0.557841
0.559042 0.516577 0.414778
0.607197 0.429388 0.658598
0.656594 0.589266 0.378853
0.703309 0.506266 0.506441
0.511588 0.558758 0.580146
0.429480 0.562679 0.680607
0.680681 0.680902 0.577691
0.577855 0.653585 0.537821
0.521004 0.597863 0.525508
0.417229 0.561023 0.594007
0.427474 0.515823 0.529227
0.554385 0.592407 0.566742
0.567367 0.547694 0.500943
0.605640 0.590665 0.660956
0.636719 0.596958 0.597188
0.543974 0.507573 0.463427
0.558754 0.657673 0.649131
0.643493 0.649886 0.452396
0.491997 0.602294 0.451149
0.696868 0.373230 0.407290
0.409929 0.687387 0.530785
0.469114 0.628268 0.496012
0.675694 0.553878 0.539305
0.480336 0.659100 0.658749
0.518853 0.658569 0.595571
0.710655 0.692071 0.512981
0.590253 0.501173 0.705058
0.542496 0.592477 0.587540
0.557234 0.665570 0.374963
0.672942 0.375431 0.615288
0.707491 0.505819 0.679318
0.535922 0.519250 0.520522
0.709113 0.496223 0.530817
0.441029 0.537047 0.586455
0.652503 0.594809 0.611469
0.651796 0.652596 0.387704
0.562221 0.523189 0.672366
0.666121 0.662668 0.596251
0.702164 0.645442 0.645805
0.628450 0.504651 0.683489
0.646508 0.666791 0.626417
0.407315 0.669650 0.527340
0.700908 0.569227 0.603523
0.861377 0.805294 0.807395
0.765685 0.872863 0.844484
0.829692 0.843791 0.824842
0.679317 0.845958 0.828204
0.826954 0.849771 0.889533
0.774316 0.887424 0.694075
0.699313 0.797947 0.898282
0.564143 0.860504 0.860289
0.857487 0.828405 0.809728
0.886279 0.819474 0.617324
0.617328 0.617342 0.807408
0.807415 0.706010 0.840960
0.851648 0.789212 0.816738
0.890408 0.825301 0.795835
0.889032 0.856037 0.848128
0.830572 0.796567 0.790175
0.790687 0.829280 0.859845
0.777857 0.778145 0.717466
0.744802 0.784567 0.784802
0.834981 0.858350 0.877523
0.825827 0.697326 0.719404
0.726143 0.715384 0.881940
0.867539 0.785851 0.882506
0.572399 0.898641 0.893722
0.893337 0.622502 0.847431
0.876702 0.757392 0.865823
0.531597 0.832047 0.842050
0.872239 0.706130 0.705114
0.854086 0.704603 0.795500
0.480921 0.620812 0.856675
0.800795 0.863148 0.550506
0.838958 0.796620 0.802505
0.823056 0.667678 0.896389
0.667623 0.898790 0.787053
0.463556 0.861096 0.653097
0.844237 0.854194 0.853481
0.460424 0.865694 0.847429
0.882246 0.842727 0.803806
0.718306 0.795637 0.776974
0.725266 0.728516 0.895546
0.825732 0.851912 0.685901
0.662883 0.683860 0.792745
0.527630 0.717665 0.718565
0.740200 0.858203 0.631339
0.720340 0.717675 0.764680
0.893953 0.680373 0.848966
0.712933 0.817332 0.742735
